<svg width="197" height="40" viewBox="0 0 197 40" fill="none" xmlns="http://www.w3.org/2000/svg">
<g clip-path="url(#clip0_241_2989)">
<rect width="39.2" height="39.2" rx="19.6" fill="white"/>
<g clip-path="url(#clip1_241_2989)">
<path d="M53.3554 21.7135C53.3554 19.5648 51.6073 17.8167 49.4586 17.8167C47.5978 17.8167 46.0384 19.1281 45.6537 20.875L16.6781 14.4382C16.7138 13.7267 16.4705 12.786 16.0171 12.1296C19.6942 9.31862 24.2345 7.77696 28.8808 7.77696C32.3022 7.77696 35.5675 8.56708 38.5861 10.1253C41.4667 11.6123 44.0094 13.7803 45.9394 16.3951C46.0746 16.5781 46.283 16.6751 46.4943 16.675C46.6365 16.675 46.7799 16.6311 46.903 16.5403C47.2091 16.3143 47.2742 15.8829 47.0482 15.5767C44.9933 12.7926 42.2856 10.4841 39.2181 8.90068C36.0475 7.26402 32.4729 6.39893 28.8807 6.39893C23.877 6.39893 18.9882 8.07739 15.0487 11.1353C14.41 10.6775 13.6285 10.407 12.7847 10.407C10.636 10.407 8.88787 12.1551 8.88787 14.3038C8.88787 15.2769 9.24728 16.1671 9.83914 16.8507C7.53253 20.4686 6.31537 24.644 6.31537 28.9643C6.31537 33.3068 7.54438 37.5002 9.87369 41.1306C9.26116 41.8192 8.88796 42.7253 8.88796 43.7173C8.88796 45.866 10.6361 47.6141 12.7847 47.6141C13.6563 47.6141 14.4619 47.3264 15.1118 46.841C19.0393 49.8681 23.9052 51.5297 28.8808 51.5297C33.8597 51.5297 38.7286 49.8662 42.6583 46.8354C43.3094 47.3241 44.1178 47.6141 44.9926 47.6141C47.1413 47.6141 48.8894 45.866 48.8894 43.7173C48.8894 42.7208 48.5129 41.8108 47.8953 41.121C50.2204 37.4927 51.4471 33.3027 51.4471 28.9643C51.4471 27.7119 51.3431 26.4582 51.1384 25.2291C52.4486 24.6005 53.3554 23.2609 53.3554 21.7135ZM44.9387 22.1278L32.8198 35.3872C32.1925 34.9554 31.4334 34.7019 30.6159 34.7019C29.8576 34.7019 29.1497 34.9204 28.5503 35.2967L25.0806 29.1401C25.8541 28.4275 26.3398 27.407 26.3398 26.2748C26.3398 24.1261 24.5917 22.378 22.443 22.378C21.5975 22.378 20.8147 22.6495 20.1754 23.1088L15.3664 17.2191C15.8077 16.8279 16.1599 16.3386 16.3882 15.7854L44.9387 22.1278ZM28.0974 38.5986C28.0974 37.2099 29.2272 36.08 30.616 36.08C32.0048 36.08 33.1347 37.2099 33.1347 38.5986C33.1347 39.9874 32.0048 41.1173 30.616 41.1173C29.2272 41.1173 28.0974 39.9874 28.0974 38.5986ZM19.9244 26.2749C19.9244 24.8861 21.0542 23.7562 22.443 23.7562C23.8318 23.7562 24.9617 24.8861 24.9617 26.2749C24.9617 27.6637 23.8318 28.7936 22.443 28.7936C21.0542 28.7936 19.9244 27.6637 19.9244 26.2749ZM12.7847 11.7851C14.1735 11.7851 15.3034 12.915 15.3034 14.3038C15.3034 15.6925 14.1735 16.8224 12.7847 16.8224C11.396 16.8224 10.2661 15.6925 10.2661 14.3038C10.2661 12.915 11.396 11.7851 12.7847 11.7851ZM10.9178 17.7232C11.8225 18.2296 13.0739 18.3627 14.1776 17.9422L19.2086 24.1038C18.7905 24.7246 18.5461 25.4717 18.5461 26.2748C18.5461 27.4314 19.0532 28.4714 19.8561 29.1858L15.0957 40.582C14.4486 40.1038 13.6493 39.8205 12.7847 39.8205C12.1266 39.8205 11.5063 39.9851 10.962 40.2744C8.82199 36.8924 7.69349 32.997 7.69349 28.9643C7.69349 24.9601 8.80656 21.0887 10.9178 17.7232ZM10.2661 43.7173C10.2661 42.3285 11.396 41.1986 12.7847 41.1986C14.1735 41.1986 15.3034 42.3285 15.3034 43.7173C15.3034 45.1061 14.1735 46.2359 12.7847 46.2359C11.396 46.2359 10.2661 45.1061 10.2661 43.7173ZM16.0572 45.8289C16.4516 45.22 16.6816 44.4952 16.6816 43.7173C16.6816 43.22 16.587 42.7446 16.4164 42.3069L21.774 41.4515C22.1497 41.3915 22.4057 41.0382 22.3458 40.6623C22.2857 40.2866 21.9323 40.0309 21.5567 40.0905L16.4542 40.9052L21.0465 29.9117C21.4804 30.0789 21.951 30.1715 22.4431 30.1715C22.9644 30.1715 23.4617 30.0679 23.9166 29.8814L27.5073 36.2523C27.0132 36.9055 26.7193 37.7183 26.7193 38.5985C26.7193 38.8231 26.7395 39.0429 26.7761 39.2571L24.7368 39.5827C24.361 39.6427 24.105 39.9961 24.1649 40.3718C24.2191 40.7108 24.5119 40.9523 24.8445 40.9523C24.8806 40.9523 24.9173 40.9494 24.9541 40.9436L27.2599 40.5753C27.9387 41.7232 29.1886 42.4952 30.616 42.4952C31.7257 42.4952 32.7278 42.0282 33.4382 41.2812L41.13 43.21C41.0008 43.9438 41.238 45.1378 41.7155 45.821C38.0438 48.6175 33.5133 50.1513 28.8809 50.1513C24.2527 50.1516 19.7263 48.6205 16.0572 45.8289ZM44.9927 46.2359C43.6039 46.2359 42.4741 45.1061 42.4741 43.7173C42.4741 42.3285 43.6039 41.1986 44.9927 41.1986C46.3815 41.1986 47.5114 42.3285 47.5114 43.7173C47.5114 45.1061 46.3815 46.2359 44.9927 46.2359ZM50.069 28.9643C50.069 32.9944 48.9419 36.888 46.8044 40.2688C46.2627 39.9831 45.6465 39.8205 44.9927 39.8205C43.5021 39.8205 42.205 40.6622 41.5498 41.8948L34.2279 40.0588C34.411 39.6075 34.5128 39.1149 34.5128 38.5986C34.5128 37.7646 34.2485 36.9916 33.8005 36.357L45.8477 23.1759C46.4444 24.6673 48.0605 25.7585 49.8008 25.5944C49.978 26.7044 50.069 27.8347 50.069 28.9643ZM49.4586 24.2321C48.0698 24.2321 46.9399 23.1023 46.9399 21.7135C46.9399 20.3247 48.0698 19.1948 49.4586 19.1948C50.8474 19.1948 51.9772 20.3247 51.9772 21.7135C51.9772 23.1023 50.8474 24.2321 49.4586 24.2321Z" fill="#151515"/>
</g>
</g>
<path d="M53.6333 31.2724C49.3388 31.2724 46.6307 27.8753 46.6307 22.379C46.6307 16.9308 49.3548 13.5497 53.6653 13.5497C56.149 13.5497 58.0719 14.8637 58.9052 16.7705H59.0013V7.87712H63.6804V31H59.0654V28.0516H58.9853C58.1521 29.9424 56.1651 31.2724 53.6333 31.2724ZM55.2196 17.2993C52.8641 17.2993 51.4219 19.2703 51.4219 22.411C51.4219 25.5678 52.8641 27.5067 55.2196 27.5067C57.5431 27.5067 59.0334 25.5518 59.0334 22.411C59.0334 19.2863 57.5431 17.2993 55.2196 17.2993ZM68.0159 37.3616C67.8557 37.3616 66.3975 37.3456 66.2532 37.3135V33.7081C66.3975 33.7401 67.2467 33.7401 67.423 33.7401C69.1376 33.7401 69.9869 33.1953 70.3074 31.8333C70.3074 31.7692 70.4836 31.0801 70.4516 31.016L64.4746 13.8221H69.6183L73.2718 27.2503H73.352L77.0055 13.8221H81.9409L76.028 31.3846C74.5538 35.7912 72.4065 37.3616 68.0159 37.3616ZM82.6549 31V13.8221H87.1738V16.8827H87.2699C88.1833 14.7515 89.994 13.5016 92.638 13.5016C96.4518 13.5016 98.599 15.9052 98.599 19.9273V31H93.9199V20.9048C93.9199 18.6614 92.8623 17.3795 90.7632 17.3795C88.664 17.3795 87.334 18.9178 87.334 21.1451V31H82.6549ZM107.213 27.8913C109.248 27.8913 110.931 26.5613 110.931 24.7025V23.4526L107.309 23.677C105.562 23.8051 104.569 24.5903 104.569 25.8082C104.569 27.0901 105.627 27.8913 107.213 27.8913ZM105.675 31.2724C102.406 31.2724 99.9219 29.1572 99.9219 26.0646C99.9219 22.9398 102.326 21.1291 106.604 20.8727L110.931 20.6163V19.4786C110.931 17.8762 109.809 16.9468 108.046 16.9468C106.3 16.9468 105.194 17.8121 104.97 19.078H100.691C100.867 15.745 103.704 13.4535 108.255 13.4535C112.661 13.4535 115.529 15.729 115.529 19.1902V31H111.011V28.372H110.915C109.953 30.1988 107.822 31.2724 105.675 31.2724ZM117.574 31V13.8221H122.092V16.9308H122.188C122.91 14.8637 124.752 13.5016 127.092 13.5016C129.576 13.5016 131.306 14.7835 131.883 17.0269H131.979C132.748 14.8637 134.8 13.5016 137.315 13.5016C140.68 13.5016 142.94 15.8091 142.94 19.2703V31H138.261V20.4401C138.261 18.4531 137.267 17.3634 135.457 17.3634C133.678 17.3634 132.508 18.6614 132.508 20.5683V31H128.005V20.2959C128.005 18.4531 126.964 17.3634 125.233 17.3634C123.454 17.3634 122.253 18.7095 122.253 20.6324V31H117.574ZM151.554 27.8913C153.589 27.8913 155.271 26.5613 155.271 24.7025V23.4526L151.65 23.677C149.903 23.8051 148.91 24.5903 148.91 25.8082C148.91 27.0901 149.967 27.8913 151.554 27.8913ZM150.015 31.2724C146.746 31.2724 144.263 29.1572 144.263 26.0646C144.263 22.9398 146.666 21.1291 150.945 20.8727L155.271 20.6163V19.4786C155.271 17.8762 154.15 16.9468 152.387 16.9468C150.64 16.9468 149.535 17.8121 149.31 19.078H145.032C145.208 15.745 148.044 13.4535 152.595 13.4535C157.002 13.4535 159.87 15.729 159.87 19.1902V31H155.351V28.372H155.255C154.294 30.1988 152.163 31.2724 150.015 31.2724ZM163.164 9.86412H167.843V13.8221H171.016V17.3474H167.843V25.5678C167.843 26.8818 168.484 27.5067 169.862 27.5067C170.279 27.5067 170.712 27.4747 171 27.4266V30.8718C170.519 30.984 169.718 31.0641 168.773 31.0641C164.735 31.0641 163.164 29.7181 163.164 26.369V17.3474H160.745V13.8221H163.164V9.86412ZM172.676 31V13.8221H177.355V31H172.676ZM175.015 11.9312C173.605 11.9312 172.515 10.8576 172.515 9.51159C172.515 8.14954 173.605 7.09194 175.015 7.09194C176.425 7.09194 177.515 8.14954 177.515 9.51159C177.515 10.8576 176.425 11.9312 175.015 11.9312ZM195.102 20.2157H190.76C190.487 18.405 189.286 17.1231 187.363 17.1231C185.055 17.1231 183.613 19.078 183.613 22.395C183.613 25.7761 185.055 27.699 187.379 27.699C189.253 27.699 190.471 26.5773 190.76 24.7025H195.118C194.878 28.7566 191.849 31.3686 187.331 31.3686C182.155 31.3686 178.87 28.0035 178.87 22.395C178.87 16.8827 182.155 13.4535 187.299 13.4535C191.946 13.4535 194.894 16.3219 195.102 20.2157Z" fill="white"/>
<defs>
<clipPath id="clip0_241_2989">
<rect width="39.2" height="39.2" rx="19.6" fill="white"/>
</clipPath>
<clipPath id="clip1_241_2989">
<rect width="47.04" height="47.04" fill="white" transform="translate(6.31561 5.44434)"/>
</clipPath>
</defs>
</svg>
