<svg width="60" height="60" viewBox="0 0 60 60" fill="none" xmlns="http://www.w3.org/2000/svg">
<rect width="60" height="60" rx="7.91209" fill="white"/>
<g clip-path="url(#clip0_235_2991)">
<rect x="14.1456" y="14.1455" width="31.1594" height="31.1594" rx="15.5797" fill="#151515"/>
<g clip-path="url(#clip1_235_2991)">
<path d="M56.5569 31.4053C56.5569 29.6974 55.1673 28.3078 53.4594 28.3078C51.9803 28.3078 50.7407 29.3503 50.4349 30.7389L27.4027 25.6223C27.4311 25.0568 27.2377 24.309 26.8773 23.7873C29.8002 21.5529 33.4092 20.3274 37.1024 20.3274C39.8221 20.3274 42.4176 20.9555 44.817 22.1941C47.1068 23.3761 49.1279 25.0994 50.662 27.1779C50.7695 27.3233 50.9352 27.4004 51.1031 27.4003C51.2161 27.4003 51.3301 27.3655 51.428 27.2932C51.6713 27.1136 51.723 26.7707 51.5434 26.5273C49.91 24.3143 47.7577 22.4793 45.3194 21.2207C42.7991 19.9197 39.9578 19.2321 37.1024 19.2321C33.125 19.2321 29.239 20.5662 26.1076 22.9969C25.5999 22.6331 24.9787 22.418 24.3079 22.418C22.5999 22.418 21.2104 23.8075 21.2104 25.5155C21.2104 26.289 21.4961 26.9966 21.9665 27.54C20.1331 30.4158 19.1656 33.7348 19.1656 37.1689C19.1656 40.6207 20.1425 43.9539 21.994 46.8397C21.5071 47.3871 21.2105 48.1073 21.2105 48.8958C21.2105 50.6037 22.6 51.9933 24.308 51.9933C25.0007 51.9933 25.6411 51.7646 26.1577 51.3788C29.2796 53.785 33.1474 55.1057 37.1024 55.1057C41.0601 55.1057 44.9303 53.7835 48.0539 51.3743C48.5715 51.7628 49.2141 51.9933 49.9095 51.9933C51.6174 51.9933 53.007 50.6037 53.007 48.8958C53.007 48.1037 52.7077 47.3803 52.2168 46.832C54.0649 43.948 55.04 40.6174 55.04 37.1689C55.04 36.1734 54.9574 35.1768 54.7947 34.1998C55.8361 33.7002 56.5569 32.6354 56.5569 31.4053ZM49.8666 31.7347L40.2335 42.2744C39.7349 41.9311 39.1315 41.7296 38.4817 41.7296C37.8789 41.7296 37.3162 41.9033 36.8397 42.2024L34.0817 37.3086C34.6965 36.7422 35.0826 35.931 35.0826 35.0311C35.0826 33.3231 33.6931 31.9336 31.9852 31.9336C31.3131 31.9336 30.6908 32.1494 30.1827 32.5144L26.3601 27.8329C26.7109 27.5219 26.9908 27.1329 27.1723 26.6932L49.8666 31.7347ZM36.4797 44.8271C36.4797 43.7231 37.3778 42.825 38.4817 42.825C39.5857 42.825 40.4838 43.7231 40.4838 44.8271C40.4838 45.931 39.5857 46.8291 38.4817 46.8291C37.3778 46.8291 36.4797 45.931 36.4797 44.8271ZM29.9831 35.0311C29.9831 33.9272 30.8812 33.0291 31.9852 33.0291C33.0891 33.0291 33.9872 33.9272 33.9872 35.0311C33.9872 36.135 33.0891 37.0332 31.9852 37.0332C30.8812 37.0332 29.9831 36.135 29.9831 35.0311ZM24.308 23.5134C25.4119 23.5134 26.31 24.4116 26.31 25.5155C26.31 26.6194 25.4119 27.5175 24.308 27.5175C23.204 27.5175 22.3059 26.6194 22.3059 25.5155C22.3059 24.4116 23.204 23.5134 24.308 23.5134ZM22.824 28.2335C23.5431 28.636 24.5378 28.7419 25.4151 28.4076L29.4142 33.3054C29.0819 33.7988 28.8876 34.3927 28.8876 35.0311C28.8876 35.9504 29.2906 36.7771 29.9289 37.3449L26.1449 46.4036C25.6305 46.0235 24.9952 45.7983 24.308 45.7983C23.7848 45.7983 23.2917 45.9292 22.8591 46.1591C21.158 43.4708 20.261 40.3744 20.261 37.1689C20.261 33.986 21.1458 30.9087 22.824 28.2335ZM22.3059 48.8958C22.3059 47.7919 23.204 46.8937 24.308 46.8937C25.4119 46.8937 26.31 47.7919 26.31 48.8958C26.31 49.9997 25.4119 50.8978 24.308 50.8978C23.204 50.8978 22.3059 49.9997 22.3059 48.8958ZM26.9092 50.5743C27.2227 50.0903 27.4055 49.5141 27.4055 48.8958C27.4055 48.5005 27.3303 48.1226 27.1947 47.7747L31.4534 47.0947C31.752 47.047 31.9555 46.7662 31.9079 46.4675C31.8601 46.1688 31.5792 45.9655 31.2806 46.0129L27.2248 46.6605L30.8751 37.9219C31.22 38.0549 31.5941 38.1285 31.9852 38.1285C32.3996 38.1285 32.7949 38.0461 33.1565 37.8978L36.0106 42.962C35.6179 43.4812 35.3843 44.1273 35.3843 44.827C35.3843 45.0055 35.4003 45.1802 35.4295 45.3505L33.8084 45.6093C33.5097 45.657 33.3063 45.9379 33.3539 46.2365C33.3969 46.506 33.6296 46.6979 33.8941 46.6979C33.9228 46.6979 33.9519 46.6957 33.9811 46.691L35.814 46.3983C36.3536 47.3107 37.3471 47.9243 38.4817 47.9243C39.3638 47.9243 40.1603 47.5531 40.725 46.9594L46.8391 48.4926C46.7364 49.0759 46.925 50.0249 47.3045 50.568C44.386 52.7909 40.7847 54.0101 37.1025 54.0101C33.4236 54.0103 29.8257 52.7932 26.9092 50.5743ZM49.9095 50.8978C48.8056 50.8978 47.9075 49.9997 47.9075 48.8958C47.9075 47.7919 48.8056 46.8937 49.9095 46.8937C51.0135 46.8937 51.9116 47.7919 51.9116 48.8958C51.9116 49.9997 51.0135 50.8978 49.9095 50.8978ZM53.9446 37.1689C53.9446 40.3724 53.0487 43.4673 51.3496 46.1547C50.919 45.9276 50.4292 45.7983 49.9095 45.7983C48.7247 45.7983 47.6936 46.4673 47.1728 47.4472L41.3528 45.9877C41.4983 45.629 41.5792 45.2374 41.5792 44.8271C41.5792 44.1641 41.3691 43.5496 41.013 43.0452L50.5892 32.5678C51.0635 33.7532 52.3481 34.6206 53.7314 34.4902C53.8723 35.3725 53.9446 36.271 53.9446 37.1689ZM53.4594 33.4074C52.3555 33.4074 51.4573 32.5093 51.4573 31.4053C51.4573 30.3014 52.3555 29.4033 53.4594 29.4033C54.5633 29.4033 55.4614 30.3014 55.4614 31.4053C55.4614 32.5093 54.5633 33.4074 53.4594 33.4074Z" fill="white"/>
</g>
</g>
<defs>
<clipPath id="clip0_235_2991">
<rect x="14.1456" y="14.1455" width="31.1594" height="31.1594" rx="15.5797" fill="white"/>
</clipPath>
<clipPath id="clip1_235_2991">
<rect width="37.3913" height="37.3913" fill="white" transform="translate(19.1658 18.4731)"/>
</clipPath>
</defs>
</svg>
